<svg width="480" height="350" viewBox="0 0 480 350" fill="none" xmlns="http://www.w3.org/2000/svg">
<circle cx="240" cy="175" r="174.545" fill="#D9D6FE"/>
<circle cx="56.7272" cy="44.0908" r="17.4545" fill="#EBE9FE"/>
<circle cx="432" cy="275.364" r="13.0909" fill="#EBE9FE"/>
<circle cx="54.5455" cy="301.546" r="21.8182" fill="#EBE9FE"/>
<circle cx="458.182" cy="100.818" r="21.8182" fill="#EBE9FE"/>
<circle cx="416.727" cy="24.4544" r="15.2727" fill="#EBE9FE"/>
<g filter="url(#filter0_dd_1607_261762)">
<path fill-rule="evenodd" clip-rule="evenodd" d="M247.605 35.3638C211.09 35.3638 178.789 53.4077 159.132 81.0656C152.713 79.5518 146.019 78.7508 139.138 78.7508C91.2137 78.7508 52.3636 117.601 52.3636 165.525C52.3636 213.449 91.2137 252.299 139.138 252.299L139.211 252.299H355.954C355.993 252.299 356.033 252.299 356.073 252.299C398.006 252.299 432 218.305 432 176.372C432 134.438 398.006 100.444 356.073 100.444C353.094 100.444 350.156 100.616 347.267 100.95C330.645 62.3712 292.279 35.3638 247.605 35.3638Z" fill="#F4F3FF"/>
<circle cx="139.138" cy="165.525" r="86.774" fill="url(#paint0_linear_1607_261762)"/>
<circle cx="247.605" cy="143.831" r="108.468" fill="url(#paint1_linear_1607_261762)"/>
<circle cx="356.073" cy="176.372" r="75.9273" fill="url(#paint2_linear_1607_261762)"/>
</g>
<g filter="url(#filter1_b_1607_261762)">
<rect x="178.909" y="183.728" width="122.182" height="122.182" rx="61.0909" fill="#6941C6" fill-opacity="0.4"/>
<path d="M262.909 267.727L254 258.818M260.364 243.546C260.364 255.495 250.677 265.182 238.727 265.182C226.778 265.182 217.091 255.495 217.091 243.546C217.091 231.596 226.778 221.909 238.727 221.909C250.677 221.909 260.364 231.596 260.364 243.546Z" stroke="white" stroke-width="4.36364" stroke-linecap="round" stroke-linejoin="round"/>
</g>
<defs>
<filter id="filter0_dd_1607_261762" x="32.3636" y="35.3638" width="419.636" height="256.935" filterUnits="userSpaceOnUse" color-interpolation-filters="sRGB">
<feFlood flood-opacity="0" result="BackgroundImageFix"/>
<feColorMatrix in="SourceAlpha" type="matrix" values="0 0 0 0 0 0 0 0 0 0 0 0 0 0 0 0 0 0 127 0" result="hardAlpha"/>
<feMorphology radius="4" operator="erode" in="SourceAlpha" result="effect1_dropShadow_1607_261762"/>
<feOffset dy="8"/>
<feGaussianBlur stdDeviation="4"/>
<feColorMatrix type="matrix" values="0 0 0 0 0.0627451 0 0 0 0 0.0941176 0 0 0 0 0.156863 0 0 0 0.03 0"/>
<feBlend mode="normal" in2="BackgroundImageFix" result="effect1_dropShadow_1607_261762"/>
<feColorMatrix in="SourceAlpha" type="matrix" values="0 0 0 0 0 0 0 0 0 0 0 0 0 0 0 0 0 0 127 0" result="hardAlpha"/>
<feMorphology radius="4" operator="erode" in="SourceAlpha" result="effect2_dropShadow_1607_261762"/>
<feOffset dy="20"/>
<feGaussianBlur stdDeviation="12"/>
<feColorMatrix type="matrix" values="0 0 0 0 0.0627451 0 0 0 0 0.0941176 0 0 0 0 0.156863 0 0 0 0.08 0"/>
<feBlend mode="normal" in2="effect1_dropShadow_1607_261762" result="effect2_dropShadow_1607_261762"/>
<feBlend mode="normal" in="SourceGraphic" in2="effect2_dropShadow_1607_261762" result="shape"/>
</filter>
<filter id="filter1_b_1607_261762" x="170.909" y="175.728" width="138.182" height="138.182" filterUnits="userSpaceOnUse" color-interpolation-filters="sRGB">
<feFlood flood-opacity="0" result="BackgroundImageFix"/>
<feGaussianBlur in="BackgroundImageFix" stdDeviation="4"/>
<feComposite in2="SourceAlpha" operator="in" result="effect1_backgroundBlur_1607_261762"/>
<feBlend mode="normal" in="SourceGraphic" in2="effect1_backgroundBlur_1607_261762" result="shape"/>
</filter>
<linearGradient id="paint0_linear_1607_261762" x1="72.5076" y1="108.192" x2="225.912" y2="252.299" gradientUnits="userSpaceOnUse">
<stop stop-color="#E9D7FE"/>
<stop offset="0.350715" stop-color="white" stop-opacity="0"/>
</linearGradient>
<linearGradient id="paint1_linear_1607_261762" x1="164.318" y1="72.1652" x2="356.073" y2="252.299" gradientUnits="userSpaceOnUse">
<stop stop-color="#E9D7FE"/>
<stop offset="0.350715" stop-color="white" stop-opacity="0"/>
</linearGradient>
<linearGradient id="paint2_linear_1607_261762" x1="297.771" y1="126.205" x2="432" y2="252.299" gradientUnits="userSpaceOnUse">
<stop stop-color="#E9D7FE"/>
<stop offset="0.350715" stop-color="white" stop-opacity="0"/>
</linearGradient>
</defs>
</svg>
